<svg width="23" height="23" viewBox="0 0 23 23" fill="none" xmlns="http://www.w3.org/2000/svg">
<g clip-path="url(#clip0_6_269)">
<path d="M22.2745 8.30878L15.0428 7.69842L12.2297 1.01078C12.1103 0.718873 11.8184 0.519836 11.5 0.519836C11.1815 0.519836 10.8896 0.70562 10.7702 1.01078L7.95709 7.69842L0.725452 8.30878C0.406993 8.33534 0.128341 8.54763 0.0354732 8.85283C-0.057395 9.15804 0.0354732 9.48975 0.274317 9.70204L5.75448 14.4391L4.10908 21.4983C4.04272 21.8167 4.16214 22.1352 4.41428 22.321C4.67968 22.5068 5.02465 22.52 5.29005 22.3608L11.5 18.6056L17.7099 22.3608C17.8426 22.4404 17.9753 22.4802 18.1213 22.4802C18.2805 22.4802 18.453 22.4271 18.5857 22.3342C18.8511 22.1484 18.9705 21.8167 18.8909 21.5115L17.2456 14.4524L22.7257 9.71529C22.9646 9.503 23.0574 9.17124 22.9646 8.86609C22.8716 8.54763 22.593 8.33534 22.2745 8.30878ZM15.839 13.5634C15.6134 13.7624 15.5205 14.0543 15.5869 14.3462L16.9138 20.0387L11.9113 17.0133C11.7786 16.9337 11.6459 16.8939 11.5 16.8939C11.354 16.8939 11.2081 16.9337 11.0887 17.0133L6.08619 20.0387L7.41309 14.3462C7.47945 14.0543 7.38654 13.7624 7.16099 13.5634L2.74237 9.74185L8.5675 9.25091C8.85941 9.22435 9.12481 9.03861 9.23098 8.77322L11.5 3.37267L13.769 8.75992C13.8884 9.03857 14.1405 9.22435 14.4325 9.2376L20.2576 9.72855L15.839 13.5634Z" fill="#FDB600"/>
</g>
<defs>
<clipPath id="clip0_6_269">
<rect width="23" height="23" fill="white"/>
</clipPath>
</defs>
</svg>
